<svg id="visual" viewBox="0 0 900 600" width="900" height="600" xmlns="http://www.w3.org/2000/svg" xmlns:xlink="http://www.w3.org/1999/xlink" version="1.1"><rect x="0" y="0" width="900" height="600" fill="#001220"></rect><defs><linearGradient id="grad1_0" x1="33.3%" y1="0%" x2="100%" y2="100%"><stop offset="20%" stop-color="#001220" stop-opacity="1"></stop><stop offset="80%" stop-color="#001220" stop-opacity="1"></stop></linearGradient></defs><defs><linearGradient id="grad2_0" x1="0%" y1="0%" x2="66.7%" y2="100%"><stop offset="20%" stop-color="#001220" stop-opacity="1"></stop><stop offset="80%" stop-color="#001220" stop-opacity="1"></stop></linearGradient></defs><g transform="translate(900, 0)"><path d="M0 378.6C-45 332.5 -89.9 286.5 -150.5 260.7C-211.1 234.9 -287.2 229.4 -327.9 189.3C-368.5 149.2 -373.5 74.6 -378.6 0L0 0Z" fill="#dd6b20"></path></g><g transform="translate(0, 600)"><path d="M0 -378.6C55.6 -351 111.3 -323.4 170.5 -295.3C229.7 -267.2 292.6 -238.6 327.9 -189.3C363.1 -140 370.9 -70 378.6 0L0 0Z" fill="#dd6b20"></path></g></svg>